<svg width="193" height="495" viewBox="0 0 193 495" fill="none" xmlns="http://www.w3.org/2000/svg">
<path opacity="0.1" d="M159.832 383.561L137.163 387.005C143.055 445.483 167.056 478.006 192.284 494.871L192.284 466.976C171.253 449.012 161.073 423.175 157.885 407.376L192.284 403.302L192.284 370.41C134.815 355.153 105.591 290.313 97.5309 254.389L192.284 239.991L192.284 213.582C86.8548 210.595 43.237 106.825 34.5407 53.5279L54.9449 50.4274L17.2273 -9.71171e-05L-6.58954e-06 58.2045L17.2279 55.5867C25.7565 137.152 91.5001 202.491 123.776 225.644L77.5327 232.671C74.9185 303.378 131.309 362.725 159.832 383.561Z" fill="#2C5948"/>
</svg>
