<svg width="32" height="32" viewBox="0 0 32 32" fill="none" xmlns="http://www.w3.org/2000/svg">
<g clip-path="url(#clip0_131_822)">
<path d="M20.8 6.40234C23.41 6.41674 24.8236 6.53314 25.7452 7.45474C26.8 8.50954 26.8 10.2063 26.8 13.5999V20.7999C26.8 24.1947 26.8 25.8915 25.7452 26.9463C24.6916 27.9999 22.9936 27.9999 19.6 27.9999H12.4C9.00635 27.9999 7.30835 27.9999 6.25475 26.9463C5.19995 25.8903 5.19995 24.1947 5.19995 20.7999V13.5999C5.19995 10.2063 5.19995 8.50954 6.25475 7.45474C7.17635 6.53314 8.58995 6.41674 11.2 6.40234" stroke="#1A2E2C" stroke-width="1.95"/>
<path d="M11.2 18.4H20.8M10 14.2H22M12.4 22.6H19.6" stroke="#1A2E2C" stroke-width="1.95" stroke-linecap="round"/>
<path d="M11.2 5.8C11.2 5.32261 11.3896 4.86477 11.7272 4.52721C12.0647 4.18964 12.5226 4 13 4H19C19.4773 4 19.9352 4.18964 20.2727 4.52721C20.6103 4.86477 20.8 5.32261 20.8 5.8V7C20.8 7.47739 20.6103 7.93523 20.2727 8.27279C19.9352 8.61036 19.4773 8.8 19 8.8H13C12.5226 8.8 12.0647 8.61036 11.7272 8.27279C11.3896 7.93523 11.2 7.47739 11.2 7V5.8Z" stroke="#1A2E2C" stroke-width="1.95"/>
</g>
<defs>
<clipPath id="clip0_131_822">
<rect width="32" height="32" fill="white"/>
</clipPath>
</defs>
</svg>
