<svg width="32" height="32" viewBox="0 0 32 32" fill="none" xmlns="http://www.w3.org/2000/svg">
<g clip-path="url(#clip0_131_942)">
<path fill-rule="evenodd" clip-rule="evenodd" d="M20.9311 12.5966C21.185 12.8428 21.3307 13.1797 21.3362 13.5332C21.3417 13.8868 21.2066 14.2281 20.9605 14.482L15.5871 20.0273C15.4416 20.1779 15.2673 20.2977 15.0745 20.3795C14.8818 20.4613 14.6745 20.5035 14.4651 20.5035C14.2557 20.5035 14.0485 20.4613 13.8557 20.3795C13.6629 20.2977 13.4886 20.1779 13.3431 20.0273L11.0458 17.6566C10.9223 17.5313 10.8249 17.3827 10.7592 17.2194C10.6934 17.0562 10.6606 16.8816 10.6627 16.7057C10.6647 16.5297 10.7016 16.3559 10.7712 16.1943C10.8407 16.0326 10.9416 15.8863 11.0679 15.7639C11.1942 15.6414 11.3436 15.5451 11.5073 15.4807C11.671 15.4162 11.8459 15.3847 12.0218 15.3881C12.1978 15.3916 12.3713 15.4298 12.5324 15.5006C12.6935 15.5714 12.839 15.6734 12.9605 15.8006L14.4645 17.3526L19.0458 12.626C19.2919 12.3721 19.6288 12.2264 19.9824 12.2209C20.3359 12.2154 20.6772 12.3505 20.9311 12.5966Z" fill="#1A2E2C"/>
<path fill-rule="evenodd" clip-rule="evenodd" d="M14.7511 3.36724C15.5626 3.0895 16.4435 3.0895 17.2551 3.36724L25.0631 6.02857C25.8894 6.31111 26.5963 6.86418 27.0693 7.5983C27.5424 8.33241 27.7539 9.20465 27.6697 10.0739L26.6591 20.4632C26.6061 21.0147 26.4352 21.5483 26.158 22.0279C25.8808 22.5075 25.5037 22.922 25.0524 23.2432L18.2284 28.1192C17.5799 28.5822 16.8046 28.8342 16.0078 28.8411C15.2111 28.848 14.4315 28.6095 13.7751 28.1579L7.00575 23.4979C6.5392 23.1769 6.1486 22.7576 5.86137 22.2695C5.57413 21.7814 5.39723 21.2363 5.34308 20.6726L4.32975 10.0686C4.24699 9.19985 4.45951 8.32859 4.93297 7.59553C5.40643 6.86247 6.11319 6.31043 6.93908 6.02857L14.7511 3.36724ZM16.4724 5.66057C16.168 5.55775 15.8382 5.55775 15.5337 5.66057L7.72175 8.32457C7.4119 8.42997 7.1467 8.63687 6.96908 8.91176C6.79146 9.18666 6.71183 9.51345 6.74308 9.83924L7.75775 20.4432C7.79775 20.8699 8.02708 21.2592 8.38175 21.5032L15.1497 26.1619C15.6537 26.5086 16.3231 26.5032 16.8204 26.1486L23.6457 21.2726C23.814 21.1512 23.9546 20.9955 24.0583 20.8158C24.162 20.636 24.2263 20.4363 24.2471 20.2299L25.2591 9.84058C25.291 9.51436 25.2116 9.18694 25.034 8.91149C24.8563 8.63604 24.5907 8.42874 24.2804 8.32324L16.4724 5.66057Z" fill="#1A2E2C"/>
</g>
<defs>
<clipPath id="clip0_131_942">
<rect width="32" height="32" fill="white"/>
</clipPath>
</defs>
</svg>
