<?xml version="1.0" encoding="UTF-8"?>
<svg version="1.1" xmlns="http://www.w3.org/2000/svg" width="280" height="216">
<path d="M0 0 C7.62758179 2.16114817 14.52411999 5.37437142 21 10 C21.33 10.99 21.66 11.98 22 13 C18.90116855 14.67673137 15.79511545 16.3396134 12.6875 18 C11.80642578 18.47695313 10.92535156 18.95390625 10.01757812 19.4453125 C9.17001953 19.89648438 8.32246094 20.34765625 7.44921875 20.8125 C6.66893311 21.23144531 5.88864746 21.65039062 5.0847168 22.08203125 C3 23 3 23 0 23 C-0.99 20.525 -0.99 20.525 -2 18 C-18.64988664 16.58965666 -34.40908846 23.97521592 -47.375 33.875 C-64.61340663 48.57331029 -73.0455046 66.62538659 -76.421875 88.67578125 C-77 92 -77 92 -78 93 C-80.67058851 93.14115161 -83.32432238 93.04247107 -86 93 C-87.19388403 53.36686044 -87.19388403 53.36686044 -87 34 C-104.68782767 37.69836397 -119.69328391 43.81872241 -130.8125 58.875 C-136.95132356 68.28498072 -139.87940505 77.69698681 -142.203125 88.5703125 C-143 92 -143 92 -144 93 C-147.3 93 -150.6 93 -154 93 C-153.67 80.46 -153.34 67.92 -153 55 C-165.77642817 57.55528563 -174.38708913 61.21072722 -182 72 C-186.73168589 80.03560622 -189.53274298 87.58940893 -188 97 C-179.30504891 118.71425285 -161.49588088 134.44562813 -140.3359375 143.64453125 C-139.23507813 144.09183594 -138.13421875 144.53914062 -137 145 C-136.00226563 145.41636719 -135.00453125 145.83273438 -133.9765625 146.26171875 C-114.58260576 153.08551834 -90.30239821 150.29783807 -71.84399414 141.95727539 C-52.22465244 132.54949273 -36.40900596 116.69532815 -28.125 96.5 C-21.42740793 77.44650533 -19.51756578 56.27017492 -26.4140625 36.98046875 C-27 35 -27 35 -27 31 C-23.62902617 29.50178941 -21.79557881 29 -18 29 C-17.36837243 30.95620578 -16.74510354 32.91511071 -16.125 34.875 C-15.60292969 36.51082031 -15.60292969 36.51082031 -15.0703125 38.1796875 C-12.77792709 46.36199746 -11.63418037 54.06106537 -11.6875 62.5625 C-11.69313965 63.51777588 -11.6987793 64.47305176 -11.70458984 65.45727539 C-12.14618358 91.65340294 -22.34329274 115.47612008 -41 134 C-63.09942904 154.59633096 -89.33796802 160.98989196 -118.94042969 160.13476562 C-142.12230586 159.11366798 -164.57039393 145.93292018 -180.18359375 129.2578125 C-189.49832201 118.79434242 -200.20837852 103.26534211 -201 89 C-197.23782287 73.42223534 -187.48869303 59.1808643 -174 50.5625 C-164.32665863 45.25341032 -154.86200421 44.4199975 -144 44 C-143.34 47.96 -142.68 51.92 -142 56 C-141.31035156 55.2265625 -140.62070313 54.453125 -139.91015625 53.65625 C-121.92607465 33.63167303 -105.0648329 25.25540274 -78 23 C-77.01 35.87 -77.01 35.87 -76 49 C-75.34 49 -74.68 49 -74 49 C-72.72310728 47.5479615 -72.72310728 47.5479615 -71.4375 45.625 C-67.65169018 40.40796939 -63.37542138 35.72452415 -59 31 C-58.45859375 30.36964844 -57.9171875 29.73929688 -57.359375 29.08984375 C-51.99093136 23.13846305 -45.00658153 19.66974546 -38 16 C-37.09121094 15.51273438 -36.18242187 15.02546875 -35.24609375 14.5234375 C-27.22681707 10.53216392 -18.70099419 8.84566543 -10 7 C-8.14545653 6.58501366 -6.29119389 6.16876497 -4.4375 5.75 C-3.303125 5.5025 -2.16875 5.255 -1 5 C-0.67 3.35 -0.34 1.7 0 0 Z " fill="#305A4A" transform="translate(247,45)"/>
<path d="M0 0 C2.50333914 1.97973996 4.94656768 4.01063953 7.37109375 6.0859375 C8.1290625 6.72144531 8.88703125 7.35695313 9.66796875 8.01171875 C12.96254376 10.81932191 16.00887342 13.41618849 18.37109375 17.0859375 C18.37109375 18.0759375 18.37109375 19.0659375 18.37109375 20.0859375 C15.83750911 21.80877506 14.21600011 22.09190264 11.12109375 22.2109375 C6.54433493 20.83790985 4.96900235 18.8385491 1.79296875 15.41015625 C-11.76792768 2.39607016 -32.05366292 -5.21022297 -50.62890625 -5.9140625 C-51.46292969 -5.95402344 -52.29695313 -5.99398438 -53.15625 -6.03515625 C-75.70760514 -6.59811225 -96.51519031 0.40888726 -113.12890625 15.6484375 C-114.99711834 17.43066366 -116.81348807 19.24851425 -118.62890625 21.0859375 C-119.2940625 21.74078125 -119.95921875 22.395625 -120.64453125 23.0703125 C-131.20267601 34.19916778 -137.23169116 49.63534498 -141.00390625 64.2734375 C-142.83334759 70.79918861 -146.77572667 76.57399002 -150.62890625 82.0859375 C-150.95890625 82.0859375 -151.28890625 82.0859375 -151.62890625 82.0859375 C-152.39027743 62.62867397 -149.18069609 48.0617125 -139.62890625 31.0859375 C-139.08363281 30.09851562 -138.53835937 29.11109375 -137.9765625 28.09375 C-125.60256623 7.21830396 -105.52848034 -6.66519749 -82.765625 -14.125 C-54.56528548 -21.21898329 -23.84993561 -17.36473767 0 0 Z " fill="#1E3331" transform="translate(194.62890625,29.9140625)"/>
<path d="M0 0 C0.598125 0.226875 1.19625 0.45375 1.8125 0.6875 C8.33633742 19.90952098 7.67085559 39.57570357 -0.9375 58.0625 C-10.89020709 76.45391136 -27.16706171 90.60620646 -47.1875 96.6875 C-67.88521325 101.9071001 -87.74834651 99.21190806 -106.1640625 88.6171875 C-121.72711306 78.68418107 -131.83262874 64.95679141 -138.1875 47.6875 C-138.78918927 43.04589705 -138.35908265 40.49627029 -135.6875 36.75 C-134.8625 35.739375 -134.0375 34.72875 -133.1875 33.6875 C-130.47751839 36.39748161 -130.00120204 39.47058423 -129 43.0625 C-124.02429147 59.7516998 -113.98694158 72.75063072 -98.95947266 81.73291016 C-83.94926302 89.81914874 -65.48233903 91.13367408 -49.0625 87.0625 C-32.42326762 81.86047419 -19.91519005 71.70193661 -11.1875 56.6875 C-6.02820446 46.40675216 -3.8351577 36.82156502 -4 25.375 C-4.00640503 23.99948975 -4.00640503 23.99948975 -4.01293945 22.59619141 C-4.06929003 16.63356321 -4.41388028 10.77636471 -5.26171875 4.8671875 C-5.1875 2.6875 -5.1875 2.6875 -3.95703125 0.8203125 C-2.1875 -0.3125 -2.1875 -0.3125 0 0 Z " fill="#315A4B" transform="translate(207.1875,83.3125)"/>
<path d="M0 0 C1.06927734 -0.020625 2.13855469 -0.04125 3.24023438 -0.0625 C13.93117046 -0.11417824 23.57152866 1.98334062 33.0625 6.9375 C34.07425293 7.45425293 34.07425293 7.45425293 35.10644531 7.98144531 C42.68593089 11.97961489 48.94910477 17.15370576 54.9375 23.25 C53.56766497 26.41115776 52.9484362 27.2427092 49.9375 29.25 C46.25847815 28.96927142 44.58650116 27.16864319 42.0625 24.625 C32.07423774 15.43050693 19.57764373 11.10175139 6.1875 10.5625 C5.29788574 10.52560059 4.40827148 10.48870117 3.49169922 10.45068359 C-11.70197778 9.90914329 -24.24673272 12.62400279 -37.0625 21.25 C-37.7225 21.25 -38.3825 21.25 -39.0625 21.25 C-39.30871094 21.83007812 -39.55492188 22.41015625 -39.80859375 23.0078125 C-41.26013152 25.60339718 -42.92362478 27.12939707 -45.125 29.125 C-49.09740649 32.95098766 -51.83205387 36.87064283 -54.625 41.5625 C-58.01514504 47.19444336 -60.69009813 50.23766257 -67.0625 52.25 C-67.7225 52.25 -68.3825 52.25 -69.0625 52.25 C-67.78690153 38.28928339 -56.61945385 24.66930948 -46.1875 15.9375 C-32.23534541 5.4035158 -17.34406558 0.08157115 0 0 Z " fill="#1F3432" transform="translate(139.0625,35.75)"/>
<path d="M0 0 C2.40267234 1.2404252 4.68160822 2.60021628 7 4 C9.80570531 5.40285265 12.05939049 4.64037328 15.08203125 4.265625 C18.68044108 3.93805891 22.26440051 3.84335982 25.875 3.8125 C27.15117187 3.79832031 28.42734375 3.78414062 29.7421875 3.76953125 C33 4 33 4 36 6 C35.01902344 5.97679687 34.03804688 5.95359375 33.02734375 5.9296875 C7.47169266 5.5048779 -14.63304434 11.55338364 -33.33984375 29.34765625 C-33.88769531 29.89292969 -34.43554688 30.43820313 -35 31 C-35.58984375 29.16015625 -35.58984375 29.16015625 -36 27 C-35.04906703 25.30485863 -34.04892238 23.63631892 -33 22 C-33 21.01 -33 20.02 -33 19 C-32.34 18.67 -31.68 18.34 -31 18 C-31 16.68 -31 15.36 -31 14 C-27.36704053 9.48008754 -23.12354062 7.23720142 -18 4.8125 C-17.30132812 4.47025391 -16.60265625 4.12800781 -15.8828125 3.77539062 C-4.81121041 -1.6037368 -4.81121041 -1.6037368 0 0 Z " fill="#263836" transform="translate(113,18)"/>
<path d="M0 0 C0 0.99 0 1.98 0 3 C0.9075 2.95875 1.815 2.9175 2.75 2.875 C5.8782046 2.99531556 7.38614006 3.3914708 10 5 C9.67 6.65 9.34 8.3 9 10 C7.22925083 10.02705729 5.45838289 10.04642195 3.6875 10.0625 C2.70136719 10.07410156 1.71523437 10.08570313 0.69921875 10.09765625 C-2 10 -2 10 -5 9 C-14.69602938 8.58217364 -24.34124805 9.16657918 -34 10 C-34.33 9.01 -34.66 8.02 -35 7 C-36.32848691 5.99357052 -37.66150329 4.99307821 -39 4 C-39 3.34 -39 2.68 -39 2 C-26.04823718 -1.49822533 -13.24366044 -2.16365467 0 0 Z " fill="#192E2C" transform="translate(151,14)"/>
<path d="M0 0 C3.53832993 0.59367952 5.4154022 1.93062202 8.0625 4.3125 C8.73410156 4.90675781 9.40570313 5.50101563 10.09765625 6.11328125 C11.98363054 7.98376499 13.56658823 9.76280592 15 12 C15 12.99 15 13.98 15 15 C12.46641536 16.72283756 10.84490636 17.00596514 7.75 17.125 C2.60753579 15.58226074 -1.09526454 12.55075222 -4 8 C-3.71875 5.234375 -3.71875 5.234375 -3 3 C-3.66 2.67 -4.32 2.34 -5 2 C-3.68 2 -2.36 2 -1 2 C-0.67 1.34 -0.34 0.68 0 0 Z " fill="#182E2B" transform="translate(198,35)"/>
<path d="M0 0 C2.40267234 1.2404252 4.68160822 2.60021628 7 4 C9.80570531 5.40285265 12.05939049 4.64037328 15.08203125 4.265625 C18.68044108 3.93805891 22.26440051 3.84335982 25.875 3.8125 C27.15117187 3.79832031 28.42734375 3.78414062 29.7421875 3.76953125 C33 4 33 4 36 6 C35.01902344 5.97679687 34.03804687 5.95359375 33.02734375 5.9296875 C20.06594967 5.71922269 7.67911872 7.19567727 -5 10 C-5 9.34 -5 8.68 -5 8 C-6.32 8.33 -7.64 8.66 -9 9 C-9.625 7.125 -9.625 7.125 -10 5 C-9.34 4.34 -8.68 3.68 -8 3 C-8.66 2.34 -9.32 1.68 -10 1 C-6.1885824 -0.85125998 -4.04558461 -1.3485282 0 0 Z " fill="#2D4140" transform="translate(113,18)"/>
<path d="M0 0 C0 0.99 0 1.98 0 3 C-0.99 3.495 -0.99 3.495 -2 4 C-1.34 4.66 -0.68 5.32 0 6 C0.66 6 1.32 6 2 6 C2 6.99 2 7.98 2 9 C0.9275 9.103125 -0.145 9.20625 -1.25 9.3125 C-4.90150273 9.69388661 -4.90150273 9.69388661 -7 11.5 C-9.8291841 13.62188808 -12.54142399 13.66744461 -16 14 C-14.88194029 10.12979331 -13.9704892 7.71218579 -11 5 C-10.67 4.01 -10.34 3.02 -10 2 C-6.75515269 -0.28341107 -3.87540045 -0.17615457 0 0 Z " fill="#1C3130" transform="translate(106,20)"/>
<path d="M0 0 C0.66 0 1.32 0 2 0 C2.66 1.32 3.32 2.64 4 4 C3.34 4 2.68 4 2 4 C2.103125 4.886875 2.20625 5.77375 2.3125 6.6875 C2 10 2 10 -0.0625 12.75 C-3.48181086 15.36904661 -5.83695646 16.10208865 -10 17 C-9.06422018 8.88990826 -9.06422018 8.88990826 -7 6 C-5.35178756 4.96986723 -3.68496298 3.96885372 -2 3 C-1.34 2.01 -0.68 1.02 0 0 Z " fill="#1B302D" transform="translate(80,71)"/>
<path d="M0 0 C6.02487844 -0.21908649 11.17549506 0.50601953 17 2 C17.77472656 2.19078125 18.54945313 2.3815625 19.34765625 2.578125 C21.23382399 3.04384543 23.11722494 3.52074817 25 4 C24.52949219 4.60328125 24.05898437 5.2065625 23.57421875 5.828125 C21.90490304 8.13120076 20.96257263 10.33441426 20 13 C21.32 13.33 22.64 13.66 24 14 C21.01316063 15.49341969 19.04839022 14.40648676 15.875 13.5625 C14.23144531 13.13130859 14.23144531 13.13130859 12.5546875 12.69140625 C11.71164063 12.46324219 10.86859375 12.23507813 10 12 C10 11.67 10 11.34 10 11 C11.98 11 13.96 11 16 11 C15.67 9.02 15.34 7.04 15 5 C12.03 5 9.06 5 6 5 C6 4.01 6 3.02 6 2 C3.03 1.505 3.03 1.505 0 1 C0 0.67 0 0.34 0 0 Z " fill="#2C3D3D" transform="translate(144,13)"/>
<path d="M0 0 C0.66 0.33 1.32 0.66 2 1 C1.43628586 4.26954202 0.50037734 5.82575883 -2 8 C-2 7.34 -2 6.68 -2 6 C-3.32 6.33 -4.64 6.66 -6 7 C-5.88637738 8.4800841 -5.75877092 9.95910074 -5.625 11.4375 C-5.55539063 12.26121094 -5.48578125 13.08492187 -5.4140625 13.93359375 C-5.27742187 14.61550781 -5.14078125 15.29742187 -5 16 C-4.34 16.33 -3.68 16.66 -3 17 C-7.75 21 -7.75 21 -10 21 C-12.52068966 14.47586207 -12.52068966 14.47586207 -11 11 C-8.11339417 5.78190485 -4.88724774 3.19550814 0 0 Z " fill="#2C5644" transform="translate(208,163)"/>
<path d="M0 0 C2.625 -0.1875 2.625 -0.1875 5 0 C6 2.4375 6 2.4375 6 6 C3.65665685 9.32298305 0.89018009 12.14972378 -2 15 C-2.66 15.66 -3.32 16.32 -4 17 C-3.25 10.375 -3.25 10.375 -1 7 C-1.99 7.33 -2.98 7.66 -4 8 C-4.66 7.67 -5.32 7.34 -6 7 C-5.67 6.01 -5.34 5.02 -5 4 C-4.01 3.67 -3.02 3.34 -2 3 C-1.34 2.01 -0.68 1.02 0 0 Z " fill="#386051" transform="translate(188,78)"/>
<path d="M0 0 C0.33 0 0.66 0 1 0 C1 9.57 1 19.14 1 29 C2.32 29 3.64 29 5 29 C5.33 28.01 5.66 27.02 6 26 C8.21538462 32.4 8.21538462 32.4 7.125 35.4375 C6.75375 35.953125 6.3825 36.46875 6 37 C5.34 37 4.68 37 4 37 C4 36.34 4 35.68 4 35 C2.68 35 1.36 35 0 35 C0 23.45 0 11.9 0 0 Z " fill="#2B5544" transform="translate(97,101)"/>
<path d="M0 0 C2.88437779 1.29299694 4.87219421 2.65941363 7 5 C6.34 5 5.68 5 5 5 C4.67 5.99 4.34 6.98 4 8 C3.67 7.34 3.34 6.68 3 6 C2.01 6.495 2.01 6.495 1 7 C1.33 7.99 1.66 8.98 2 10 C1.67 10.66 1.34 11.32 1 12 C-2.5786304 10.34832443 -5.74820188 8.21713508 -9 6 C-8.443125 5.7525 -7.88625 5.505 -7.3125 5.25 C-4.60028873 3.78393985 -2.36412635 1.97010529 0 0 Z " fill="#2A3A3A" transform="translate(193,30)"/>
<path d="M0 0 C0 0.99 0 1.98 0 3 C0.99 3.33 1.98 3.66 3 4 C3 5.65 3 7.3 3 9 C-0.94727588 9.17942163 -3.5980513 9.09350689 -7 7 C-6.74438677 4.6568787 -6.40729228 2.32156597 -6 0 C-3.50907189 -1.24546405 -2.58919267 -0.7767578 0 0 Z " fill="#192D2C" transform="translate(171,19)"/>
<path d="M0 0 C2.31 0 4.62 0 7 0 C7.1676542 5.07182479 7.32820966 10.1438057 7.48217773 15.21606445 C7.53556166 16.94171197 7.59088821 18.66730052 7.64819336 20.39282227 C7.7302051 22.87242927 7.80523843 25.35216407 7.87890625 27.83203125 C7.90594131 28.60400345 7.93297638 29.37597565 7.96083069 30.17134094 C8.05128101 33.41429423 8.03489186 35.89532441 7 39 C6.34 39 5.68 39 5 39 C5.33 26.46 5.66 13.92 6 1 C4.02 1 2.04 1 0 1 C0 0.67 0 0.34 0 0 Z " fill="#406456" transform="translate(88,99)"/>
<path d="M0 0 C0.33 0.99 0.66 1.98 1 3 C0.67 3.66 0.34 4.32 0 5 C-3.0625 5.625 -3.0625 5.625 -6 6 C-5.67 7.32 -5.34 8.64 -5 10 C-5.66 10 -6.32 10 -7 10 C-7 10.66 -7 11.32 -7 12 C-8.32 12.33 -9.64 12.66 -11 13 C-11.66 12.01 -12.32 11.02 -13 10 C-9.28685474 4.89442527 -5.79782471 2.44573251 0 0 Z " fill="#182B29" transform="translate(75,40)"/>
<path d="M0 0 C0.12375 0.639375 0.2475 1.27875 0.375 1.9375 C0.684375 2.9584375 0.684375 2.9584375 1 4 C1.66 4.33 2.32 4.66 3 5 C-1.455 8.96 -1.455 8.96 -6 13 C-7 9 -7 9 -5.5625 6.4375 C-5.046875 5.633125 -4.53125 4.82875 -4 4 C-4 3.01 -4 2.02 -4 1 C-2.68 0.67 -1.36 0.34 0 0 Z " fill="#2B3B3D" transform="translate(84,36)"/>
<path d="M0 0 C0.66 0 1.32 0 2 0 C2.66 1.32 3.32 2.64 4 4 C3.34 4 2.68 4 2 4 C2.061875 4.928125 2.12375 5.85625 2.1875 6.8125 C2 10 2 10 0.5 11.875 C-0.2425 12.431875 -0.2425 12.431875 -1 13 C-1.12375 12.360625 -1.2475 11.72125 -1.375 11.0625 C-1.58125 10.381875 -1.7875 9.70125 -2 9 C-2.66 8.67 -3.32 8.34 -4 8 C-2.87548273 5.0280615 -1.77706209 2.66559313 0 0 Z " fill="#182E2B" transform="translate(80,71)"/>
<path d="M0 0 C0.53625 0.268125 1.0725 0.53625 1.625 0.8125 C0.635 2.2975 0.635 2.2975 -0.375 3.8125 C0.285 4.1425 0.945 4.4725 1.625 4.8125 C-1.84 6.2975 -1.84 6.2975 -5.375 7.8125 C-5.375 7.1525 -5.375 6.4925 -5.375 5.8125 C-6.365 5.4825 -7.355 5.1525 -8.375 4.8125 C-2.95961538 -0.23365385 -2.95961538 -0.23365385 0 0 Z " fill="#192929" transform="translate(82.375,32.1875)"/>
<path d="M0 0 C0.33 0 0.66 0 1 0 C1.33 2.97 1.66 5.94 2 9 C2.33 9 2.66 9 3 9 C3 11.64 3 14.28 3 17 C2.01 17.33 1.02 17.66 0 18 C0 12.06 0 6.12 0 0 Z " fill="#527165" transform="translate(160,80)"/>
<path d="M0 0 C-0.66 3.3 -1.32 6.6 -2 10 C-2.33 9.01 -2.66 8.02 -3 7 C-3.99 6.67 -4.98 6.34 -6 6 C-3.84615385 0 -3.84615385 0 0 0 Z " fill="#336052" transform="translate(233,129)"/>
<path d="M0 0 C1.41569064 -0.08167446 2.83276805 -0.13949698 4.25 -0.1875 C5.43335938 -0.23970703 5.43335938 -0.23970703 6.640625 -0.29296875 C9.51712968 0.06421312 10.84576769 1.11751718 13 3 C11.39592672 3.02708567 9.7917215 3.04643483 8.1875 3.0625 C6.84751953 3.07990234 6.84751953 3.07990234 5.48046875 3.09765625 C3 3 3 3 0 2 C0 1.34 0 0.68 0 0 Z " fill="#536161" transform="translate(136,43)"/>
<path d="M0 0 C-0.53060399 4.51013391 -2.30886117 7.38378219 -5 11 C-5.33 11 -5.66 11 -6 11 C-6.48951049 4.63636364 -6.48951049 4.63636364 -4.125 1.5625 C-2 0 -2 0 0 0 Z " fill="#3E6152" transform="translate(116,101)"/>
<path d="M0 0 C1.25955231 3.77865693 0.48087189 5.03411786 -0.9375 8.6875 C-1.31777344 9.68136719 -1.69804688 10.67523438 -2.08984375 11.69921875 C-2.39019531 12.45847656 -2.69054688 13.21773437 -3 14 C-5.1015625 10.390625 -5.1015625 10.390625 -4.1875 6.875 C-3.50754787 5.2288001 -2.79653111 3.59306222 -2 2 C-1.34 2 -0.68 2 0 2 C0 1.34 0 0.68 0 0 Z " fill="#334140" transform="translate(58,75)"/>
<path d="M0 0 C0.66 0.33 1.32 0.66 2 1 C1.505 1.433125 1.01 1.86625 0.5 2.3125 C-1.33218192 3.99740483 -1.33218192 3.99740483 -1 7 C-1.33 7.66 -1.66 8.32 -2 9 C-2.66 9 -3.32 9 -4 9 C-4 8.34 -4 7.68 -4 7 C-5.32 7.33 -6.64 7.66 -8 8 C-5.33333333 5.33333333 -2.66666667 2.66666667 0 0 Z " fill="#4A685D" transform="translate(198,171)"/>
<path d="M0 0 C0.33 0 0.66 0 1 0 C1.02708567 1.60407328 1.04643483 3.2082785 1.0625 4.8125 C1.07410156 5.70582031 1.08570312 6.59914062 1.09765625 7.51953125 C1 10 1 10 0 13 C-0.66 13 -1.32 13 -2 13 C-2.16682272 8.07872966 -2.24828052 4.49656104 0 0 Z " fill="#497166" transform="translate(95,125)"/>
<path d="M0 0 C1.5778125 0.4021875 1.5778125 0.4021875 3.1875 0.8125 C1.7025 2.2975 1.7025 2.2975 0.1875 3.8125 C-0.4725 3.4825 -1.1325 3.1525 -1.8125 2.8125 C-3.05 3.555 -3.05 3.555 -4.3125 4.3125 C-5.55 5.055 -5.55 5.055 -6.8125 5.8125 C-7.4725 5.4825 -8.1325 5.1525 -8.8125 4.8125 C-4.75096154 -0.23365385 -4.75096154 -0.23365385 0 0 Z " fill="#283B3B" transform="translate(76.8125,38.1875)"/>
<path d="M0 0 C0.99 0.33 1.98 0.66 3 1 C0.69 4.3 -1.62 7.6 -4 11 C-5 8 -5 8 -4.00390625 5.95703125 C-3.52824219 5.24933594 -3.05257812 4.54164062 -2.5625 3.8125 C-2.08941406 3.09707031 -1.61632812 2.38164063 -1.12890625 1.64453125 C-0.75636719 1.10183594 -0.38382812 0.55914062 0 0 Z " fill="#1B2C2A" transform="translate(81,64)"/>
<path d="M0 0 C0.33 0.66 0.66 1.32 1 2 C1.66 2.33 2.32 2.66 3 3 C0.03 5.475 0.03 5.475 -3 8 C-2.25 2.25 -2.25 2.25 0 0 Z " fill="#404F4E" transform="translate(80,41)"/>
<path d="M0 0 C1.65 0.33 3.3 0.66 5 1 C4.67 2.32 4.34 3.64 4 5 C2.68 5.33 1.36 5.66 0 6 C-1 3 -1 3 0 0 Z " fill="#316154" transform="translate(203,173)"/>
<path d="M0 0 C-1.98 0.99 -3.96 1.98 -6 3 C-6 2.34 -6 1.68 -6 1 C-6.66 1 -7.32 1 -8 1 C-8 0.34 -8 -0.32 -8 -1 C-4.59745511 -2.2151946 -3.06748874 -1.86240388 0 0 Z " fill="#3A5C50" transform="translate(176,173)"/>
<path d="M0 0 C0.33 0.66 0.66 1.32 1 2 C1.66 2.33 2.32 2.66 3 3 C-0.96 4.98 -0.96 4.98 -5 7 C-5 5.68 -5 4.36 -5 3 C-3.35 2.67 -1.7 2.34 0 2 C0 1.34 0 0.68 0 0 Z " fill="#456555" transform="translate(79,100)"/>
<path d="M0 0 C1.98 0.66 3.96 1.32 6 2 C6.33 3.65 6.66 5.3 7 7 C5.83040013 6.02433888 4.66438823 5.044375 3.5 4.0625 C2.8503125 3.51722656 2.200625 2.97195312 1.53125 2.41015625 C1.0259375 1.94480469 0.520625 1.47945312 0 1 C0 0.67 0 0.34 0 0 Z " fill="#2D3B39" transform="translate(196,44)"/>
<path d="M0 0 C1.5 1.3125 1.5 1.3125 3 3 C3 3.99 3 4.98 3 6 C1.68 6.33 0.36 6.66 -1 7 C-0.67 4.69 -0.34 2.38 0 0 Z " fill="#2E3E3B" transform="translate(71,81)"/>
<path d="M0 0 C2.475 0.495 2.475 0.495 5 1 C4.34 2.32 3.68 3.64 3 5 C2.01 5 1.02 5 0 5 C0 3.35 0 1.7 0 0 Z " fill="#1C2F2A" transform="translate(186,60)"/>
<path d="M0 0 C2.0625 0.4375 2.0625 0.4375 4 1 C4 1.99 4 2.98 4 4 C2.68 4.33 1.36 4.66 0 5 C-0.5625 3.0625 -0.5625 3.0625 -1 1 C-0.67 0.67 -0.34 0.34 0 0 Z " fill="#203837" transform="translate(209,46)"/>
<path d="M0 0 C0.66 0.99 1.32 1.98 2 3 C0.35 4.98 -1.3 6.96 -3 9 C-3 5.30581799 -1.71820705 3.22163822 0 0 Z " fill="#416054" transform="translate(198,136)"/>
<path d="M0 0 C1.98 0 3.96 0 6 0 C6 1.65 6 3.3 6 5 C3.5625 4.1875 3.5625 4.1875 1 3 C0.67 2.01 0.34 1.02 0 0 Z " fill="#324140" transform="translate(175,29)"/>
</svg>
